<?xml version="1.0" encoding="utf-8"?>
<!-- Generator: Adobe Illustrator 23.0.2, SVG Export Plug-In . SVG Version: 6.00 Build 0)  -->
<svg version="1.1" id="iconCommon_line_16_parameterSetting"
	 xmlns="http://www.w3.org/2000/svg" xmlns:xlink="http://www.w3.org/1999/xlink" x="0px" y="0px" viewBox="0 0 16 16"
	 style="enable-background:new 0 0 16 16;" xml:space="preserve">
<style type="text/css">
	.st0{fill:#FFFFFF;}
</style>
<path id="iconCommon_line_16_parameterSetting-99ec8c16" class="st0" d="M6,1.5c-1.1,0-2,0.9-2,2s0.9,2,2,2s2-0.9,2-2S7.1,1.5,6,1.5
	z M6,2.5c0.6,0,1,0.4,1,1s-0.4,1-1,1s-1-0.4-1-1S5.4,2.5,6,2.5z"/>
<path id="iconCommon_line_16_parameterSetting-4f935184" class="st0" d="M5,3v1H2V3H5z"/>
<path class="st0" d="M14,3v1H7V3H14z"/>
<path class="st0" d="M6,10.5c-1.1,0-2,0.9-2,2s0.9,2,2,2s2-0.9,2-2S7.1,10.5,6,10.5z M6,11.5c0.6,0,1,0.4,1,1s-0.4,1-1,1s-1-0.4-1-1
	S5.4,11.5,6,11.5z"/>
<path class="st0" d="M5,12v1H2v-1H5z"/>
<path class="st0" d="M14,12v1H7v-1H14z"/>
<path class="st0" d="M10,6c1.1,0,2,0.9,2,2s-0.9,2-2,2S8,9.1,8,8S8.9,6,10,6z M10,7C9.4,7,9,7.4,9,8c0,0.6,0.4,1,1,1s1-0.4,1-1
	C11,7.4,10.6,7,10,7z"/>
<path class="st0" d="M11,7.5v1h3v-1H11z"/>
<path class="st0" d="M2,7.5v1h7v-1H2z"/>
</svg>
