<svg width="24" height="24" viewBox="0 0 24 24" fill="none" xmlns="http://www.w3.org/2000/svg">
<g id="&#233;&#128;&#154;&#231;&#148;&#168;&#229;&#155;&#190;&#230;&#160;&#135;/&#233;&#157;&#162;&#229;&#189;&#162;/24/[&#233;&#128;&#154;&#231;&#148;&#168;&#231;&#177;&#187;-&#229;&#133;&#172;&#229;&#145;&#138;&#38;&#229;&#145;&#138;&#231;&#164;&#186;]iconCommon_surface_24_notice">
<path id="&#232;&#183;&#175;&#229;&#190;&#132;" opacity="0.6" d="M10.7506 1.71878C11.4354 1.17095 12.3904 1.13671 13.109 1.61606L13.2494 1.71878L17.6247 5.21902L16.3753 6.78076L12 3.28052L7.6247 6.78076L6.37531 5.21902L10.7506 1.71878Z" fill="#4285F4"/>
<path id="&#229;&#189;&#162;&#231;&#138;&#182;&#231;&#187;&#147;&#229;&#144;&#136;" d="M20 5.25C20.9665 5.25 21.75 6.0335 21.75 7V19C21.75 19.9665 20.9665 20.75 20 20.75H4C3.0335 20.75 2.25 19.9665 2.25 19V7C2.25 6.0335 3.0335 5.25 4 5.25H20ZM6 16.75H16V15.25H6V16.75ZM6 12.75H12V11.25H6V12.75Z" fill="#4285F4"/>
<path id="&#229;&#189;&#162;&#231;&#138;&#182;&#231;&#187;&#147;&#229;&#144;&#136;_2" opacity="0.5" d="M16 16.75H6V15.25H16V16.75ZM12 12.75H6V11.25H12V12.75Z" fill="#4285F4"/>
</g>
</svg>
